<?xml version="1.0" standalone="no"?>
<!DOCTYPE svg PUBLIC "-//W3C//DTD SVG 20010904//EN"
 "http://www.w3.org/TR/2001/REC-SVG-20010904/DTD/svg10.dtd">
<svg version="1.0" xmlns="http://www.w3.org/2000/svg"
 width="513.000000pt" height="513.000000pt" viewBox="0 0 513.000000 513.000000"
 preserveAspectRatio="xMidYMid meet">
<metadata>
Created by potrace 1.11, written by Peter Selinger 2001-2013
</metadata>
<g transform="translate(0.000000,513.000000) scale(0.100000,-0.100000)"
fill="#000000" stroke="none">
<path d="M2315 5119 c-475 -49 -920 -223 -1300 -508 -127 -96 -343 -306 -448
-436 -296 -367 -492 -828 -547 -1285 -6 -52 -10 -177 -8 -277 l3 -182 115 76
114 75 166 -5 c184 -6 298 -26 470 -83 102 -34 342 -143 353 -160 5 -9 -122
-91 -289 -188 l-82 -48 -79 45 c-218 124 -510 207 -726 207 l-49 0 7 -62 c53
-500 253 -967 584 -1367 88 -107 258 -274 358 -353 l60 -47 7 147 c18 406 121
770 335 1187 217 423 517 827 918 1236 90 91 163 169 163 173 0 4 -19 -4 -42
-17 -24 -14 -356 -185 -739 -381 l-697 -357 -86 25 c-47 14 -106 28 -131 32
-25 3 -45 9 -45 13 0 3 727 369 1615 813 l1615 808 35 -17 c19 -9 34 -20 33
-23 -2 -3 -13 -30 -26 -60 l-24 -55 -472 -243 -473 -242 -140 -143 c-374 -382
-596 -759 -659 -1119 -12 -71 -15 -132 -11 -258 5 -168 17 -236 65 -370 168
-469 646 -922 1347 -1277 83 -42 153 -80 156 -85 7 -11 199 104 316 191 346
254 607 568 794 956 84 174 130 299 174 470 121 473 107 968 -42 1431 l-26 81
-139 -65 -138 -65 -48 27 c-113 64 -387 197 -505 245 -210 85 -436 144 -610
159 l-88 7 123 67 c68 36 186 99 263 139 l140 72 110 -6 c173 -10 437 -64 619
-127 33 -11 61 -18 63 -17 7 8 -159 246 -236 338 -157 188 -397 397 -616 534
-111 70 -338 182 -466 229 -137 50 -346 103 -501 127 -154 23 -491 33 -633 18z
m985 -838 c108 -22 287 -79 375 -120 l60 -27 -95 -52 c-52 -29 -154 -81 -227
-117 l-131 -65 -106 51 c-61 29 -155 63 -223 81 -107 28 -133 31 -280 32 -89
0 -161 2 -160 2 1 1 70 52 152 115 129 97 157 114 200 120 82 12 331 1 435
-20z"/>
<path d="M3008 43 c7 -3 16 -2 19 1 4 3 -2 6 -13 5 -11 0 -14 -3 -6 -6z"/>
<path d="M2158 33 c7 -3 16 -2 19 1 4 3 -2 6 -13 5 -11 0 -14 -3 -6 -6z"/>
<path d="M2948 33 c7 -3 16 -2 19 1 4 3 -2 6 -13 5 -11 0 -14 -3 -6 -6z"/>
<path d="M2228 23 c6 -2 18 -2 25 0 6 3 1 5 -13 5 -14 0 -19 -2 -12 -5z"/>
<path d="M2878 23 c7 -3 16 -2 19 1 4 3 -2 6 -13 5 -11 0 -14 -3 -6 -6z"/>
<path d="M2323 13 c9 -2 23 -2 30 0 6 3 -1 5 -18 5 -16 0 -22 -2 -12 -5z"/>
<path d="M2773 13 c9 -2 25 -2 35 0 9 3 1 5 -18 5 -19 0 -27 -2 -17 -5z"/>
<path d="M2498 3 c34 -2 90 -2 125 0 34 2 6 3 -63 3 -69 0 -97 -1 -62 -3z"/>
</g>
</svg>
